kinematics
version=1
nRows=74
nColumns=17
inDegrees=yes
endheader
time	hip_flexion_l	hip_flexion_r	knee_angle_l	knee_angle_r	ankle_angle_l	ankle_angle_r	lumbar_extension	pelvis_tilt	arm_flex_l	arm_flex_r	elbow_flexion_l	elbow_flexion_r	head_flexion	pelvis_tx	pelvis_ty	pelvis_tz
6.339667	-17.579622	9.515645	-0.232649	4.273064	0.157392	14.917303	1.352683	-0.343827	0.663661	3.315932	9.729851	11.433290	143.086052	2.967449	2.608009	0.000000
6.356350	-17.192605	10.140866	-0.309830	4.604061	-0.089261	15.648376	1.325594	-0.325304	0.680649	2.974654	9.875001	11.263628	142.973611	2.950117	2.609507	0.000000
6.373033	-16.788326	10.710308	-0.128433	5.123188	-0.684007	16.389068	1.263436	-0.287054	0.735819	2.609937	10.088794	11.012262	142.826120	2.932099	2.611147	0.000000
6.389717	-16.381114	11.155606	0.201318	5.893605	-1.656194	17.103151	1.190236	-0.242593	0.841621	2.257262	10.393548	10.691629	142.671052	2.913816	2.612842	0.000000
6.406400	-15.908634	11.423498	0.542462	6.938588	-2.971040	17.719896	1.130734	-0.205838	1.000760	1.948760	10.785250	10.315206	142.525508	2.895684	2.614503	0.000000
6.423083	-15.378702	11.482548	0.758829	8.242007	-4.500033	18.148540	1.107684	-0.189588	1.198862	1.701079	11.216990	9.895767	142.422687	2.878028	2.616044	0.000000
6.439767	-14.755439	11.326782	0.762089	9.762091	-6.041588	18.297062	1.136724	-0.202639	1.406013	1.514880	11.595719	9.446321	142.419345	2.861054	2.617375	0.000000
6.456450	-14.047892	10.971108	0.547495	11.449562	-7.386769	18.086866	1.224377	-0.248661	1.590651	1.381273	11.813010	8.985826	142.561682	2.844873	2.618414	0.000000
6.473133	-13.290663	10.442189	0.173858	13.261994	-8.388532	17.461131	1.366964	-0.325587	1.733820	1.289296	11.786610	8.540777	142.855840	2.829530	2.619094	0.000000
6.489817	-12.511660	9.774937	-0.294589	15.167060	-8.989971	16.391009	1.547333	-0.423769	1.836112	1.230034	11.494029	8.139869	143.254455	2.814976	2.619353	0.000000
6.506500	-11.717838	9.018484	-0.810106	17.123625	-9.211411	14.881428	1.737020	-0.527200	1.917805	1.194428	11.000320	7.810648	143.654845	2.801041	2.619116	0.000000
6.523183	-10.919161	8.235597	-1.312919	19.061304	-9.120414	12.975970	1.909498	-0.620955	2.001078	1.170936	10.440618	7.578638	143.924043	2.787500	2.618287	0.000000
6.539867	-10.150944	7.482549	-1.717851	20.894139	-8.800891	10.756890	2.054571	-0.699297	2.088492	1.147893	9.966810	7.464705	143.941073	2.774182	2.616766	0.000000
6.556550	-9.463893	6.792718	-1.943211	22.549859	-8.331080	8.333764	2.180609	-0.766933	2.168406	1.117693	9.726768	7.481113	143.647854	2.761029	2.614475	0.000000
6.573233	-8.905279	6.182968	-1.939443	23.976927	-7.771252	5.820254	2.308218	-0.835459	2.232742	1.078387	9.861177	7.629023	143.097568	2.748089	2.611408	0.000000
6.589917	-8.510297	5.663717	-1.695375	25.142226	-7.158227	3.308802	2.462485	-0.918992	2.278549	1.033694	10.459010	7.895648	142.445006	2.735488	2.607654	0.000000
6.606600	-8.291774	5.238264	-1.235166	26.042239	-6.506995	0.856739	2.660984	-1.027431	2.294034	0.993246	11.466471	8.251907	141.866807	2.723388	2.603412	0.000000
6.623283	-8.230275	4.897805	-0.606197	26.716521	-5.817754	-1.508459	2.902795	-1.160271	2.246846	0.970116	12.621375	8.658302	141.487254	2.711909	2.598970	0.000000
6.639967	-8.277141	4.615127	0.139386	27.248530	-5.083952	-3.771702	3.169565	-1.307192	2.096679	0.980520	13.543985	9.072751	141.351436	2.701065	2.594610	0.000000
6.656650	-8.375989	4.340387	0.963366	27.749322	-4.294999	-5.918515	3.439146	-1.455734	1.826677	1.045894	13.974643	9.454746	141.431115	2.690795	2.590497	0.000000
6.673333	-8.495563	4.014541	1.861952	28.319124	-3.432869	-7.935132	3.700605	-1.599741	1.459984	1.184333	13.926225	9.775836	141.664238	2.681010	2.586639	0.000000
6.690017	-8.678357	3.605088	2.866921	28.999812	-2.473073	-9.805700	3.954750	-1.739670	1.046700	1.398112	13.619116	10.030151	142.008676	2.671583	2.582969	0.000000
6.706700	-8.890813	3.127642	4.009118	29.762406	-1.399550	-11.486960	4.201513	-1.875482	0.630467	1.673537	13.314015	10.231862	142.464839	2.662308	2.579449	0.000000
6.723383	-9.134982	2.622395	5.274376	30.543045	-0.226723	-12.875872	4.434227	-2.003416	0.215252	1.987936	13.203817	10.405572	143.051215	2.652953	2.576097	0.000000
6.740067	-9.403760	2.112543	6.590120	31.281289	0.989223	-13.822068	4.649209	-2.121388	0.246704	2.316953	13.403657	10.575307	143.747728	2.643382	2.572969	0.000000
6.756750	-9.689317	1.580410	7.844544	31.935904	2.158684	-14.194930	4.857660	-2.235713	0.842168	2.643085	14.002430	10.753770	144.464051	2.633646	2.570128	0.000000
6.773433	-9.984507	0.968877	8.930429	32.492946	3.183765	-13.948605	5.084175	-2.360276	1.662165	2.959392	15.123102	10.940393	145.081498	2.623947	2.567618	0.000000
6.790117	-10.287308	0.204864	9.802960	32.966568	3.986798	-13.138402	5.351323	-2.507835	2.745256	3.265166	16.897198	11.129649	145.522709	2.614512	2.565430	0.000000
6.806800	-10.610992	-0.772671	10.512836	33.388132	4.523953	-11.889689	5.665609	-2.682106	4.026235	3.559104	19.299177	11.322665	145.778447	2.605512	2.563501	0.000000
6.823483	-10.984492	-1.999665	11.176513	33.792429	4.778931	-10.338267	6.018360	-2.878237	5.345854	3.833860	21.979651	11.534727	145.887583	2.597048	2.561727	0.000000
6.840167	-11.457743	-3.481095	11.890452	34.201977	4.739658	-8.580636	6.395876	-3.088530	6.518346	4.073357	24.369321	11.791253	145.905952	2.589143	2.560009	0.000000
6.856850	-11.963747	-5.177327	12.638358	34.607286	4.376371	-6.676639	6.781201	-3.303425	7.384711	4.253978	26.021425	12.114059	145.898313	2.581679	2.558298	0.000000
6.873533	-12.411936	-6.994938	13.252060	34.955257	3.666910	-4.676918	7.146228	-3.507009	7.828663	4.350011	26.800381	12.508399	145.948578	2.574378	2.556654	0.000000
6.890217	-12.682438	-8.808970	13.464036	35.158921	2.664109	-2.626525	7.452537	-3.677458	7.785627	4.340648	26.795849	12.961278	146.138281	2.566871	2.555234	0.000000
6.906900	-12.678816	-10.510293	13.034646	35.118811	1.519696	-0.577493	7.666057	-3.795350	7.251834	4.215534	26.168962	13.451943	146.493851	2.558859	2.554210	0.000000
6.923583	-12.359709	-12.036429	11.888675	34.733911	0.452725	1.372606	7.771389	-3.851854	6.284676	3.981748	25.076347	13.957545	146.970136	2.550225	2.553687	0.000000
6.940267	-11.736141	-13.363344	10.178116	33.896825	-0.273261	3.080889	7.776497	-3.851439	4.999737	3.668648	23.683306	14.446960	147.485503	2.541030	2.553703	0.000000
6.956950	-10.852692	-14.478382	8.211492	32.495156	-0.406746	4.411140	7.706199	-3.808199	3.565973	3.317182	22.178225	14.882359	147.958948	2.531387	2.554248	0.000000
6.973633	-9.770378	-15.375550	6.299076	30.462658	0.169129	5.271224	7.588021	-3.737787	2.171631	2.959294	20.714220	15.231741	148.321385	2.521324	2.555289	0.000000
6.990317	-8.558373	-16.078726	4.647364	27.852828	1.372282	5.610345	7.443454	-3.652425	0.962996	2.610644	19.353882	15.472403	148.516461	2.510776	2.556773	0.000000
7.007000	-7.295851	-16.646680	3.409629	24.824919	2.987100	5.413547	7.291833	-3.563097	0.013152	2.278222	18.093975	15.587092	148.518366	2.499696	2.558667	0.000000
7.023683	-6.072617	-17.141717	2.547813	21.548646	4.777735	4.720532	7.155567	-3.482511	0.664139	1.965765	16.921280	15.567770	148.359736	2.488166	2.560989	0.000000
7.040367	-4.971149	-17.601988	2.041887	18.161542	6.560736	3.660287	7.056231	-3.422887	1.094147	1.674182	15.843065	15.421134	148.123358	2.476353	2.563793	0.000000
7.057050	-4.038747	-18.044859	1.860727	14.805800	8.232086	2.469512	7.006973	-3.391659	1.327567	1.403490	14.884580	15.166033	147.887387	2.464424	2.567122	0.000000
7.073733	-3.273510	-18.475355	1.933615	11.641830	9.775817	1.469283	7.007983	-3.388923	1.423124	1.153216	14.062945	14.827002	147.684214	2.452469	2.570964	0.000000
7.090417	-2.627112	-18.874511	2.164955	8.805483	11.244691	1.011491	7.043028	-3.405476	1.432376	0.919206	13.363557	14.426869	147.521135	2.440425	2.575252	0.000000
7.107100	-2.021739	-19.193229	2.465306	6.377710	12.711791	1.402337	7.079851	-3.423038	1.397326	0.695044	12.750305	13.977196	147.424070	2.428043	2.579888	0.000000
7.123783	-1.383300	-19.380776	2.780934	4.427462	14.223825	2.792406	7.083251	-3.421657	1.350933	0.480984	12.197081	13.474884	147.441764	2.415005	2.584755	0.000000
7.140467	-0.670251	-19.419244	3.099457	2.964606	15.775197	5.059936	7.031412	-3.388966	1.309918	0.288210	11.694993	12.911461	147.615821	2.401082	2.589717	0.000000
7.157150	0.124571	-19.319385	3.439754	1.976665	17.307428	7.775852	6.914969	-3.319674	1.272816	0.129729	11.233952	12.286010	147.951000	2.386139	2.594613	0.000000
7.173833	0.984051	-19.093684	3.850512	1.464350	18.727784	10.352688	6.725348	-3.208958	1.232314	0.009351	10.799874	11.612459	148.401170	2.370056	2.599255	0.000000
7.190517	1.869187	-18.747539	4.415069	1.386248	19.927910	12.300573	6.452670	-3.051283	1.184637	0.079386	10.389027	10.919536	148.895612	2.352729	2.603472	0.000000
7.207200	2.724528	-18.287719	5.235857	1.674331	20.792028	13.388513	6.093281	-2.844668	1.125302	0.146803	10.010443	10.243300	149.402522	2.334132	2.607166	0.000000
7.223883	3.497885	-17.728249	6.390991	2.251975	21.207466	13.663872	5.656028	-2.594216	1.046137	0.197859	9.679835	9.614527	149.961484	2.314333	2.610362	0.000000
7.240567	4.160607	-17.083846	7.900962	3.041344	21.097929	13.361675	5.159533	-2.310535	0.941885	0.229928	9.415129	9.051934	150.651382	2.293470	2.613186	0.000000
7.257250	4.705140	-16.356934	9.742335	3.958271	20.462611	12.774833	4.624559	-2.005395	0.817643	0.242461	9.231709	8.570531	151.535813	2.271685	2.615800	0.000000
7.273933	5.120730	-15.536586	11.886983	4.907497	19.364918	12.179771	4.071623	-1.690377	0.691021	0.241531	9.144519	8.190078	152.624062	2.249116	2.618301	0.000000
7.290617	5.371961	-14.611774	14.324265	5.790136	17.860172	11.774393	3.522204	-1.377559	0.586452	0.229023	9.169638	7.925866	153.852788	2.225959	2.620645	0.000000
7.307300	5.390683	-13.585069	17.059017	6.551641	15.927947	11.602679	3.000440	-1.080487	0.522123	0.189984	9.310795	7.774542	155.074262	2.202530	2.622671	0.000000
7.323983	5.086861	-12.470476	20.097720	7.095155	13.480088	11.552581	2.532271	-0.813699	0.501469	0.096368	9.548335	7.717638	156.067536	2.179249	2.624216	0.000000
7.340667	4.385797	-11.272042	23.428366	7.335867	10.458861	11.413354	2.135472	-0.587142	0.518212	0.073573	9.852871	7.737640	156.624103	2.156482	2.625202	0.000000
7.357350	3.266607	-9.971887	26.997826	7.216663	6.955631	10.927517	1.809332	-0.400374	0.563354	0.323046	10.207612	7.823238	156.673344	2.134420	2.625649	0.000000
7.374033	1.774128	-8.546502	30.696833	6.724841	3.248858	9.855572	1.536324	-0.243512	0.624382	0.639987	10.610654	7.964603	156.322830	2.113087	2.625624	0.000000
7.390717	0.013314	-6.992012	34.358175	5.982913	-0.280043	8.074661	1.290734	-0.102081	0.685674	1.002589	11.063458	8.154580	155.779021	2.092389	2.625197	0.000000
7.407400	-1.872848	-5.342529	37.776425	5.045783	-3.298729	5.693277	1.049077	0.037136	0.735579	1.386396	11.575640	8.389986	155.241922	2.072206	2.624410	0.000000
7.424083	-3.749167	-3.675475	40.750418	4.062903	-5.637049	3.091601	0.802799	0.178952	0.772936	1.776225	12.184151	8.665970	154.849498	2.052500	2.623279	0.000000
7.440767	-5.525224	-2.096351	43.105880	3.181096	-7.319241	0.769251	0.567875	0.314386	0.803528	2.171615	12.937934	8.974029	154.670460	2.033385	2.621815	0.000000
7.457450	-7.159071	-0.709767	45.040090	2.499471	-8.529847	-0.904338	0.382700	0.421841	0.832298	2.582772	13.837967	9.304718	154.707714	2.015129	2.620056	0.000000
7.474133	-8.646680	0.416964	46.237744	2.044906	-9.529812	-1.807525	0.287974	0.478416	0.870012	3.023487	14.810733	9.647132	154.897189	1.998025	2.618063	0.000000
7.490817	-10.008147	1.281890	46.399681	1.774082	-10.565157	-2.023311	0.303108	0.473187	0.942578	3.502547	15.754755	9.990710	155.124207	1.982195	2.615893	0.000000
7.507500	-11.265485	1.935180	45.391517	1.605841	-11.767101	-1.748640	0.424325	0.408278	1.073143	4.018155	16.585778	10.330113	155.267472	1.967566	2.613604	0.000000
7.524183	-12.421413	2.438387	43.088593	1.464706	-13.032175	-1.221603	0.636956	0.291947	1.249756	4.560151	17.215981	10.660335	155.246824	1.953991	2.611260	0.000000
7.540867	-13.455255	2.844194	39.483534	1.301012	-13.966464	-0.666097	0.919861	0.136092	1.417796	5.114351	17.518824	10.968518	155.041550	1.941280	2.608914	0.000000
7.557550	-14.340150	3.196603	34.875414	1.090890	-13.977973	-0.236082	1.245901	-0.044022	1.505740	5.663551	17.373791	11.240411	154.677642	1.929158	2.606593	0.000000
